<?xml version="1.0" standalone="no"?>
<!DOCTYPE svg PUBLIC "-//W3C//DTD SVG 20010904//EN"
 "http://www.w3.org/TR/2001/REC-SVG-20010904/DTD/svg10.dtd">
<svg version="1.0" xmlns="http://www.w3.org/2000/svg"
 width="422.000000pt" height="456.000000pt" viewBox="0 0 422.000000 456.000000"
 preserveAspectRatio="xMidYMid meet">

<g transform="translate(0.000000,456.000000) scale(0.100000,-0.100000)"
fill="#000000" stroke="none">
<path d="M1630 4248 c-555 -415 -1113 -843 -1118 -857 -1 -5 65 -163 147 -352
82 -189 148 -345 146 -347 -2 -2 -150 111 -329 252 -179 140 -326 252 -326
248 0 -37 183 -1699 188 -1703 4 -4 171 -25 372 -48 201 -23 373 -45 383 -49
13 -5 -99 -57 -372 -172 -214 -91 -384 -168 -378 -171 65 -37 1531 -679 1541
-676 6 3 124 157 261 342 137 186 250 334 252 329 2 -6 -23 -219 -56 -474 -33
-256 -59 -466 -57 -467 6 -6 1368 1026 1380 1046 3 5 -62 165 -145 356 -83
191 -149 349 -147 350 2 2 134 -96 293 -218 337 -258 395 -301 399 -296 2 4
-214 1712 -218 1716 0 0 -174 22 -386 48 -212 26 -386 48 -388 50 -4 4 -9 2
445 196 200 85 363 156 363 160 0 11 -1582 671 -1589 663 -4 -5 -120 -161
-256 -346 -137 -186 -250 -336 -252 -334 -2 2 24 212 57 467 67 517 63 479 53
478 -5 0 -123 -86 -263 -191z m66 -639 c-83 -643 -157 -1255 -211 -1739 -41
-371 -45 -403 -51 -397 -3 3 -182 427 -399 943 -309 735 -392 942 -382 951 39
38 1113 841 1115 834 2 -5 -31 -271 -72 -592z m1312 154 c336 -141 612 -259
612 -262 0 -3 -173 -80 -385 -170 -335 -142 -390 -162 -420 -157 -34 7 -39 13
-92 121 -33 66 -60 109 -64 103 -4 -7 -11 -49 -14 -94 -4 -44 -11 -87 -15 -94
-6 -9 -94 -2 -401 34 -217 26 -409 50 -427 54 l-33 7 277 372 277 372 36 -15
c20 -8 312 -130 649 -271z m-796 -612 c219 -26 400 -50 404 -53 7 -8 -34 -474
-44 -500 -6 -14 -64 25 -308 205 -166 122 -351 258 -413 302 -119 86 -136 109
-73 99 20 -3 216 -27 434 -53z m1098 -132 c239 -28 436 -52 438 -54 4 -4 182
-1399 178 -1402 -2 -2 -150 107 -329 242 l-325 247 -221 507 c-122 279 -221
510 -221 514 0 4 10 5 23 3 12 -3 218 -29 457 -57z m-1413 -65 c87 -64 159
-119 161 -123 2 -7 -377 -176 -382 -170 -2 2 7 87 20 189 13 102 23 193 23
203 1 9 5 17 11 17 5 0 80 -52 167 -116z m1233 -815 c223 -511 406 -934 408
-938 2 -5 -249 -205 -558 -445 -308 -239 -560 -433 -560 -431 0 3 27 238 60
523 73 636 158 1424 202 1880 18 188 35 342 38 342 3 0 187 -419 410 -931z
m-2017 -157 c119 -284 217 -516 217 -517 0 -6 -912 123 -918 130 -7 8 -163
1351 -162 1392 0 7 145 -100 323 -238 l322 -251 218 -516z m1241 637 c105 -78
195 -145 199 -149 7 -6 -37 -477 -45 -485 -3 -3 -441 -188 -485 -205 -18 -8
-52 14 -220 142 l-198 150 3 37 c8 83 51 433 54 435 9 7 484 215 492 215 4 1
94 -63 200 -140z m-298 -1009 c207 -157 370 -286 363 -288 -17 -3 -877 112
-882 119 -2 2 9 117 24 254 15 138 28 254 28 258 1 5 21 -6 45 -25 25 -18 214
-161 422 -318z m444 258 c-5 -64 -49 -421 -53 -424 -6 -6 -340 242 -345 255
-1 4 82 44 185 88 166 72 213 89 213 81z m-1125 -510 c1 -1 28 -54 59 -115 31
-62 58 -113 60 -113 2 0 10 47 16 105 11 85 16 105 29 105 27 -1 842 -108 845
-112 3 -3 -533 -711 -553 -731 -5 -5 -286 110 -655 269 -355 153 -643 281
-638 285 4 4 176 78 382 163 314 131 381 156 413 152 21 -2 40 -6 42 -8z"/>
</g>
</svg>
