<svg width="522" height="579" viewBox="0 0 522 579" fill="none" xmlns="http://www.w3.org/2000/svg">
<path d="M197.333 25.5999C123.333 80.9332 48.9333 138 48.2667 139.867C48.1333 140.533 56.9333 161.6 67.8667 186.8C78.8 212 87.6 232.8 87.3333 233.067C87.0667 233.333 67.3333 218.267 43.4667 199.467C19.6 180.8 0 165.867 0 166.4C0 171.333 24.4 392.933 25.0667 393.467C25.6 394 47.8667 396.8 74.6667 399.867C101.467 402.933 124.4 405.867 125.733 406.4C127.467 407.067 112.533 414 76.1333 429.333C47.6 441.467 24.9333 451.733 25.7333 452.133C34.4 457.067 229.867 542.667 231.2 542.267C232 541.867 247.733 521.333 266 496.667C284.267 471.867 299.333 452.133 299.6 452.8C299.867 453.6 296.533 482 292.133 516C287.733 550.133 284.267 578.133 284.533 578.267C285.333 579.067 466.933 441.467 468.533 438.8C468.933 438.133 460.267 416.8 449.2 391.333C438.133 365.867 429.333 344.8 429.6 344.667C429.867 344.4 447.467 357.467 468.667 373.733C513.6 408.133 521.333 413.867 521.867 413.2C522.133 412.667 493.333 184.933 492.8 184.4C492.8 184.4 469.6 181.467 441.333 178C413.067 174.533 389.867 171.6 389.6 171.333C389.067 170.8 388.4 171.067 448.933 145.2C475.6 133.867 497.333 124.4 497.333 123.867C497.333 122.4 286.4 34.3998 285.467 35.4665C284.933 36.1332 269.467 56.9332 251.333 81.5998C233.067 106.4 218 126.4 217.733 126.133C217.467 125.867 220.933 97.8665 225.333 63.8665C234.267 -5.06683 233.733 -0.000127815 232.4 0.133206C231.733 0.133206 216 11.5999 197.333 25.5999ZM206.133 110.8C195.067 196.533 185.2 278.133 178 342.667C172.533 392.133 172 396.4 171.2 395.6C170.8 395.2 146.933 338.667 118 269.867C76.8 171.867 65.7333 144.267 67.0667 143.067C72.2667 138 215.467 30.9332 215.733 31.8665C216 32.5332 211.6 67.9998 206.133 110.8ZM381.067 90.2665C425.867 109.067 462.667 124.8 462.667 125.2C462.667 125.6 439.6 135.867 411.333 147.867C366.667 166.8 359.333 169.467 355.333 168.8C350.8 167.867 350.133 167.067 343.067 152.667C338.667 143.867 335.067 138.133 334.533 138.933C334 139.867 333.067 145.467 332.667 151.467C332.133 157.333 331.2 163.067 330.667 164C329.867 165.2 318.133 164.267 277.2 159.467C248.267 156 222.667 152.8 220.267 152.267L215.867 151.333L252.8 101.733L289.733 52.1332L294.533 54.1332C297.2 55.1998 336.133 71.4665 381.067 90.2665ZM274.933 171.867C304.133 175.333 328.267 178.533 328.8 178.933C329.733 180 324.267 242.133 322.933 245.6C322.133 247.467 314.4 242.267 281.867 218.267C259.733 202 235.067 183.867 226.8 178C210.933 166.533 208.667 163.467 217.067 164.8C219.733 165.2 245.867 168.4 274.933 171.867ZM421.333 189.467C453.2 193.2 479.467 196.4 479.733 196.667C480.267 197.2 504 383.2 503.467 383.6C503.2 383.867 483.467 369.333 459.6 351.333L416.267 318.4L386.8 250.8C370.533 213.6 357.333 182.8 357.333 182.267C357.333 181.733 358.667 181.6 360.4 181.867C362 182.267 389.467 185.733 421.333 189.467ZM232.933 198.133C244.533 206.667 254.133 214 254.4 214.533C254.667 215.467 204.133 238 203.467 237.2C203.2 236.933 204.4 225.6 206.133 212C207.867 198.4 209.2 186.267 209.2 184.933C209.333 183.733 209.867 182.667 210.667 182.667C211.333 182.667 221.333 189.6 232.933 198.133ZM397.333 306.8C427.067 374.933 451.467 431.333 451.733 431.867C452 432.533 418.533 459.2 377.333 491.2C336.267 523.067 302.667 548.933 302.667 548.667C302.667 548.267 306.267 516.933 310.667 478.933C320.4 394.133 331.733 289.067 337.6 228.267C340 203.2 342.267 182.667 342.667 182.667C343.067 182.667 367.6 238.533 397.333 306.8ZM128.4 327.733C144.267 365.6 157.333 396.533 157.333 396.667C157.333 397.467 35.7333 380.267 34.9333 379.333C34 378.267 13.2 199.2 13.3333 193.733C13.3333 192.8 32.6667 207.067 56.4 225.467L99.3333 258.933L128.4 327.733ZM293.867 242.8C307.867 253.2 319.867 262.133 320.4 262.667C321.333 263.467 315.467 326.267 314.4 327.333C314 327.733 255.6 352.4 249.733 354.667C247.333 355.733 242.8 352.8 220.4 335.733L194 315.733L194.4 310.8C195.467 299.733 201.2 253.067 201.6 252.8C202.8 251.867 266.133 224.133 267.2 224.133C267.733 224 279.733 232.533 293.867 242.8ZM254.133 377.333C281.733 398.267 303.467 415.467 302.533 415.733C300.267 416.133 185.6 400.8 184.933 399.867C184.667 399.6 186.133 384.267 188.133 366C190.133 347.6 191.867 332.133 191.867 331.6C192 330.933 194.667 332.4 197.867 334.933C201.2 337.333 226.4 356.4 254.133 377.333ZM313.333 342.933C312.667 351.467 306.8 399.067 306.267 399.467C305.467 400.267 260.933 367.2 260.267 365.467C260.133 364.933 271.2 359.6 284.933 353.733C307.067 344.133 313.333 341.867 313.333 342.933ZM163.333 410.933C163.467 411.067 167.067 418.133 171.2 426.267C175.333 434.533 178.933 441.333 179.2 441.333C179.467 441.333 180.533 435.067 181.333 427.333C182.8 416 183.467 413.333 185.2 413.333C188.8 413.467 297.467 427.733 297.867 428.267C298.267 428.667 226.8 523.067 224.133 525.733C223.467 526.4 186 511.067 136.8 489.867C89.4667 469.467 51.0667 452.4 51.7333 451.867C52.2667 451.333 75.2 441.467 102.667 430.133C144.533 412.667 153.467 409.333 157.733 409.867C160.533 410.133 163.067 410.667 163.333 410.933Z" fill="white"/>
</svg>
